<svg width="41" height="40" viewBox="0 0 41 40" fill="none" xmlns="http://www.w3.org/2000/svg">
<g id="fluent-emoji:money-bag">
<g id="Group">
<g id="Group_2" filter="url(#filter0_i_711_4436)">
<path id="Vector" d="M6.16406 26.1038C6.16406 18.165 12.6003 11.7288 20.5391 11.7288H21.2428C29.1803 11.7288 35.6178 18.165 35.6178 26.1038V26.4613C35.6178 29.3786 34.4589 32.1765 32.396 34.2394C30.3331 36.3023 27.5352 37.4613 24.6178 37.4613H17.1641C14.2467 37.4613 11.4488 36.3023 9.38589 34.2394C7.32299 32.1765 6.16406 29.3786 6.16406 26.4613V26.1038Z" fill="url(#paint0_radial_711_4436)"/>
<path id="Vector_2" d="M6.16406 26.1038C6.16406 18.165 12.6003 11.7288 20.5391 11.7288H21.2428C29.1803 11.7288 35.6178 18.165 35.6178 26.1038V26.4613C35.6178 29.3786 34.4589 32.1765 32.396 34.2394C30.3331 36.3023 27.5352 37.4613 24.6178 37.4613H17.1641C14.2467 37.4613 11.4488 36.3023 9.38589 34.2394C7.32299 32.1765 6.16406 29.3786 6.16406 26.4613V26.1038Z" fill="url(#paint1_radial_711_4436)"/>
</g>
<path id="Vector_3" d="M6.16406 26.1038C6.16406 18.165 12.6003 11.7288 20.5391 11.7288H21.2428C29.1803 11.7288 35.6178 18.165 35.6178 26.1038V26.4613C35.6178 29.3786 34.4589 32.1765 32.396 34.2394C30.3331 36.3023 27.5352 37.4613 24.6178 37.4613H17.1641C14.2467 37.4613 11.4488 36.3023 9.38589 34.2394C7.32299 32.1765 6.16406 29.3786 6.16406 26.4613V26.1038Z" fill="url(#paint2_radial_711_4436)"/>
<path id="Vector_4" d="M6.16406 26.1038C6.16406 18.165 12.6003 11.7288 20.5391 11.7288H21.2428C29.1803 11.7288 35.6178 18.165 35.6178 26.1038V26.4613C35.6178 29.3786 34.4589 32.1765 32.396 34.2394C30.3331 36.3023 27.5352 37.4613 24.6178 37.4613H17.1641C14.2467 37.4613 11.4488 36.3023 9.38589 34.2394C7.32299 32.1765 6.16406 29.3786 6.16406 26.4613V26.1038Z" fill="url(#paint3_radial_711_4436)"/>
<g id="Group_3" filter="url(#filter1_ii_711_4436)">
<path id="Vector_5" d="M15.8129 5.86873C16.4004 6.86998 17.2566 8.15498 18.3566 9.20873H23.4254C24.5254 8.15498 25.3804 6.87123 25.9691 5.86873C26.0395 5.74581 26.0841 5.60977 26.0999 5.46899C26.1157 5.32821 26.1026 5.18568 26.0612 5.05018C26.0199 4.91468 25.9513 4.78908 25.8595 4.68113C25.7678 4.57317 25.6549 4.48515 25.5279 4.42248C25.1279 4.21748 24.6579 4.31498 24.2691 4.54123C23.3916 5.05248 22.8854 4.44998 22.1116 3.26623C21.7229 2.67123 21.1291 2.63998 20.8904 2.63623C20.6529 2.63998 20.0591 2.67123 19.6704 3.26623C18.8954 4.44998 18.3904 5.05248 17.5129 4.54123C17.1241 4.31498 16.6541 4.21748 16.2529 4.42248C16.1259 4.48526 16.0132 4.57337 15.9216 4.68138C15.83 4.78938 15.7614 4.915 15.7202 5.05049C15.679 5.18598 15.6659 5.32847 15.6819 5.46919C15.6978 5.60992 15.7424 5.74589 15.8129 5.86873Z" fill="url(#paint4_linear_711_4436)"/>
</g>
<g id="Group_4" filter="url(#filter2_f_711_4436)">
<path id="Vector_6" d="M21.6115 17.8225C21.6115 17.5573 21.5061 17.3029 21.3186 17.1154C21.1311 16.9279 20.8767 16.8225 20.6115 16.8225C20.3463 16.8225 20.0919 16.9279 19.9044 17.1154C19.7169 17.3029 19.6115 17.5573 19.6115 17.8225V18.7663C19.6115 18.99 19.4615 19.1838 19.2528 19.2638C18.8921 19.4008 18.5522 19.5872 18.2428 19.8175C17.787 20.1514 17.4178 20.5896 17.1662 21.0954C16.9145 21.6013 16.7878 22.1601 16.7965 22.725C16.7965 24.05 17.394 25.01 18.2053 25.625C18.9778 26.2125 19.9115 26.465 20.6553 26.5325C20.9578 26.56 21.409 26.6413 21.7815 26.8763C22.1053 27.08 22.4265 27.4288 22.494 28.1763C22.559 28.8913 22.269 29.3163 21.8903 29.605C21.4528 29.9388 20.944 30.045 20.8153 30.045C20.514 30.045 19.9978 30.005 19.5603 29.7675C19.1928 29.5675 18.7978 29.1913 18.7153 28.27C18.6915 28.0058 18.5639 27.7618 18.3603 27.5917C18.1567 27.4217 17.8939 27.3394 17.6296 27.3631C17.3654 27.3868 17.1214 27.5145 16.9514 27.7181C16.7813 27.9217 16.699 28.1845 16.7228 28.4488C16.8653 30.0475 17.6603 31.0113 18.6065 31.5263C18.8153 31.6388 19.0265 31.7275 19.2328 31.7975C19.3405 31.8312 19.4349 31.8978 19.5029 31.9879C19.5708 32.078 19.6088 32.1872 19.6115 32.3V33.1538C19.6115 33.419 19.7169 33.6733 19.9044 33.8609C20.0919 34.0484 20.3463 34.1538 20.6115 34.1538C20.8767 34.1538 21.1311 34.0484 21.3186 33.8609C21.5061 33.6733 21.6115 33.419 21.6115 33.1538V32.3088C21.6115 32.0838 21.764 31.8875 21.9765 31.8088C22.3515 31.6713 22.744 31.4688 23.1015 31.1963C23.9328 30.5625 24.624 29.5088 24.4865 27.9963C24.359 26.595 23.6565 25.7513 22.8365 25.2338C22.219 24.8571 21.5249 24.6239 20.8053 24.5513C19.669 24.4925 18.7965 23.865 18.7965 22.725C18.7965 22.0975 19.0465 21.6375 19.414 21.3625C20.1753 20.7175 21.469 20.805 22.0803 21.615C22.3503 21.9738 22.4715 22.3688 22.499 22.725C22.5415 23.275 23.0178 23.7138 23.569 23.6713C24.119 23.63 24.5303 23.1988 24.4878 22.6475C24.4276 21.8559 24.1446 21.0975 23.6715 20.46C23.2915 19.955 22.5728 19.4725 21.984 19.23C21.8778 19.1901 21.7857 19.1197 21.7195 19.0276C21.6532 18.9355 21.6156 18.8259 21.6115 18.7125V17.8225Z" fill="url(#paint5_linear_711_4436)"/>
</g>
<g id="Group_5" filter="url(#filter3_ii_711_4436)">
<path id="Vector_7" d="M21.8614 17.695C21.8614 17.4298 21.7561 17.1754 21.5686 16.9879C21.381 16.8004 21.1267 16.695 20.8614 16.695C20.5962 16.695 20.3419 16.8004 20.1543 16.9879C19.9668 17.1754 19.8614 17.4298 19.8614 17.695V18.6388C19.8614 18.8638 19.7114 19.0563 19.5027 19.1363C19.1421 19.2734 18.8022 19.4597 18.4927 19.69C18.0372 20.0241 17.6683 20.4623 17.4169 20.9682C17.1655 21.474 17.0389 22.0327 17.0477 22.5975C17.0477 23.9225 17.6439 24.8825 18.4552 25.4975C19.2277 26.085 20.1602 26.3388 20.9052 26.4063C21.2077 26.4338 21.6589 26.5138 22.0327 26.7488C22.3552 26.9525 22.6764 27.3013 22.7452 28.0488C22.8102 28.765 22.5189 29.19 22.1389 29.4788C21.7014 29.8125 21.1939 29.9175 21.0639 29.9175C20.7639 29.9175 20.2477 29.8775 19.8102 29.6413C19.4427 29.4413 19.0477 29.0638 18.9652 28.1438C18.9535 28.0129 18.9162 27.8857 18.8554 27.7693C18.7946 27.6529 18.7114 27.5496 18.6106 27.4653C18.5099 27.381 18.3935 27.3174 18.2682 27.2781C18.1429 27.2388 18.011 27.2246 17.8802 27.2363C17.7494 27.2479 17.6221 27.2852 17.5057 27.3461C17.3893 27.4069 17.286 27.4901 17.2017 27.5908C17.1175 27.6916 17.0539 27.8079 17.0146 27.9333C16.9753 28.0586 16.961 28.1904 16.9727 28.3213C17.1152 29.9213 17.9102 30.885 18.8564 31.3988C19.0652 31.5113 19.2764 31.6013 19.4827 31.67C19.7014 31.745 19.8614 31.9425 19.8614 32.1738V33.0275C19.8614 33.2927 19.9668 33.5471 20.1543 33.7346C20.3419 33.9222 20.5962 34.0275 20.8614 34.0275C21.1267 34.0275 21.381 33.9222 21.5686 33.7346C21.7561 33.5471 21.8614 33.2927 21.8614 33.0275V32.1825C21.8614 31.9563 22.0139 31.7613 22.2264 31.6825C22.6014 31.545 22.9939 31.3425 23.3514 31.07C24.1827 30.4363 24.8739 29.3813 24.7364 27.8688C24.6089 26.4675 23.9064 25.625 23.0864 25.1063C22.469 24.7296 21.7748 24.4963 21.0552 24.4238C19.9189 24.365 19.0464 23.7375 19.0464 22.5988C19.0464 21.9713 19.2964 21.5113 19.6639 21.2363C20.4252 20.5913 21.7189 20.6788 22.3302 21.4888C22.6002 21.8475 22.7214 22.2425 22.7489 22.5975C22.7914 23.1475 23.2677 23.5875 23.8189 23.545C24.3689 23.5025 24.7802 23.0713 24.7377 22.52C24.6776 21.7284 24.3946 20.97 23.9214 20.3325C23.5414 19.8288 22.8227 19.345 22.2339 19.1025C22.1277 19.0626 22.0357 18.9922 21.9694 18.9001C21.9031 18.808 21.8656 18.6984 21.8614 18.585V17.695Z" fill="url(#paint6_linear_711_4436)"/>
</g>
<g id="Group_6" filter="url(#filter4_i_711_4436)">
<path id="Vector_8" d="M23.1316 9.20874H18.5916C17.866 9.20874 17.2778 9.79693 17.2778 10.5225V10.5312C17.2778 11.2568 17.866 11.845 18.5916 11.845H23.1316C23.8571 11.845 24.4453 11.2568 24.4453 10.5312V10.5225C24.4453 9.79693 23.8571 9.20874 23.1316 9.20874Z" fill="url(#paint7_linear_711_4436)"/>
<path id="Vector_9" d="M23.1316 9.20874H18.5916C17.866 9.20874 17.2778 9.79693 17.2778 10.5225V10.5312C17.2778 11.2568 17.866 11.845 18.5916 11.845H23.1316C23.8571 11.845 24.4453 11.2568 24.4453 10.5312V10.5225C24.4453 9.79693 23.8571 9.20874 23.1316 9.20874Z" fill="url(#paint8_radial_711_4436)"/>
</g>
<path id="Vector_10" d="M23.1316 9.20874H18.5916C17.866 9.20874 17.2778 9.79693 17.2778 10.5225V10.5312C17.2778 11.2568 17.866 11.845 18.5916 11.845H23.1316C23.8571 11.845 24.4453 11.2568 24.4453 10.5312V10.5225C24.4453 9.79693 23.8571 9.20874 23.1316 9.20874Z" fill="url(#paint9_radial_711_4436)"/>
</g>
</g>
<defs>
<filter id="filter0_i_711_4436" x="6.16406" y="10.2288" width="30.4536" height="27.2325" filterUnits="userSpaceOnUse" color-interpolation-filters="sRGB">
<feFlood flood-opacity="0" result="BackgroundImageFix"/>
<feBlend mode="normal" in="SourceGraphic" in2="BackgroundImageFix" result="shape"/>
<feColorMatrix in="SourceAlpha" type="matrix" values="0 0 0 0 0 0 0 0 0 0 0 0 0 0 0 0 0 0 127 0" result="hardAlpha"/>
<feOffset dx="1" dy="-1.5"/>
<feGaussianBlur stdDeviation="1.75"/>
<feComposite in2="hardAlpha" operator="arithmetic" k2="-1" k3="1"/>
<feColorMatrix type="matrix" values="0 0 0 0 0.713726 0 0 0 0 0.321569 0 0 0 0 0.211765 0 0 0 1 0"/>
<feBlend mode="normal" in2="shape" result="effect1_innerShadow_711_4436"/>
</filter>
<filter id="filter1_ii_711_4436" x="15.4753" y="2.38623" width="10.7312" height="7.02251" filterUnits="userSpaceOnUse" color-interpolation-filters="sRGB">
<feFlood flood-opacity="0" result="BackgroundImageFix"/>
<feBlend mode="normal" in="SourceGraphic" in2="BackgroundImageFix" result="shape"/>
<feColorMatrix in="SourceAlpha" type="matrix" values="0 0 0 0 0 0 0 0 0 0 0 0 0 0 0 0 0 0 127 0" result="hardAlpha"/>
<feOffset dx="-0.2" dy="0.2"/>
<feGaussianBlur stdDeviation="0.15"/>
<feComposite in2="hardAlpha" operator="arithmetic" k2="-1" k3="1"/>
<feColorMatrix type="matrix" values="0 0 0 0 1 0 0 0 0 0.92549 0 0 0 0 0.403922 0 0 0 1 0"/>
<feBlend mode="normal" in2="shape" result="effect1_innerShadow_711_4436"/>
<feColorMatrix in="SourceAlpha" type="matrix" values="0 0 0 0 0 0 0 0 0 0 0 0 0 0 0 0 0 0 127 0" result="hardAlpha"/>
<feOffset dx="0.1" dy="-0.25"/>
<feGaussianBlur stdDeviation="0.25"/>
<feComposite in2="hardAlpha" operator="arithmetic" k2="-1" k3="1"/>
<feColorMatrix type="matrix" values="0 0 0 0 0.788235 0 0 0 0 0.364706 0 0 0 0 0.12549 0 0 0 1 0"/>
<feBlend mode="normal" in2="effect1_innerShadow_711_4436" result="effect2_innerShadow_711_4436"/>
</filter>
<filter id="filter2_f_711_4436" x="16.4187" y="16.5225" width="8.38516" height="17.9312" filterUnits="userSpaceOnUse" color-interpolation-filters="sRGB">
<feFlood flood-opacity="0" result="BackgroundImageFix"/>
<feBlend mode="normal" in="SourceGraphic" in2="BackgroundImageFix" result="shape"/>
<feGaussianBlur stdDeviation="0.15" result="effect1_foregroundBlur_711_4436"/>
</filter>
<filter id="filter3_ii_711_4436" x="16.8687" y="16.495" width="8.03516" height="17.6825" filterUnits="userSpaceOnUse" color-interpolation-filters="sRGB">
<feFlood flood-opacity="0" result="BackgroundImageFix"/>
<feBlend mode="normal" in="SourceGraphic" in2="BackgroundImageFix" result="shape"/>
<feColorMatrix in="SourceAlpha" type="matrix" values="0 0 0 0 0 0 0 0 0 0 0 0 0 0 0 0 0 0 127 0" result="hardAlpha"/>
<feOffset dx="0.15" dy="-0.2"/>
<feGaussianBlur stdDeviation="0.15"/>
<feComposite in2="hardAlpha" operator="arithmetic" k2="-1" k3="1"/>
<feColorMatrix type="matrix" values="0 0 0 0 0.352941 0 0 0 0 0.168627 0 0 0 0 0.188235 0 0 0 1 0"/>
<feBlend mode="normal" in2="shape" result="effect1_innerShadow_711_4436"/>
<feColorMatrix in="SourceAlpha" type="matrix" values="0 0 0 0 0 0 0 0 0 0 0 0 0 0 0 0 0 0 127 0" result="hardAlpha"/>
<feOffset dx="-0.1" dy="0.15"/>
<feGaussianBlur stdDeviation="0.11"/>
<feComposite in2="hardAlpha" operator="arithmetic" k2="-1" k3="1"/>
<feColorMatrix type="matrix" values="0 0 0 0 0.670588 0 0 0 0 0.458824 0 0 0 0 0.403922 0 0 0 1 0"/>
<feBlend mode="normal" in2="effect1_innerShadow_711_4436" result="effect2_innerShadow_711_4436"/>
</filter>
<filter id="filter4_i_711_4436" x="17.2778" y="8.60874" width="7.16748" height="3.23623" filterUnits="userSpaceOnUse" color-interpolation-filters="sRGB">
<feFlood flood-opacity="0" result="BackgroundImageFix"/>
<feBlend mode="normal" in="SourceGraphic" in2="BackgroundImageFix" result="shape"/>
<feColorMatrix in="SourceAlpha" type="matrix" values="0 0 0 0 0 0 0 0 0 0 0 0 0 0 0 0 0 0 127 0" result="hardAlpha"/>
<feOffset dy="-0.6"/>
<feGaussianBlur stdDeviation="0.5"/>
<feComposite in2="hardAlpha" operator="arithmetic" k2="-1" k3="1"/>
<feColorMatrix type="matrix" values="0 0 0 0 0.388235 0 0 0 0 0.223529 0 0 0 0 0.109804 0 0 0 1 0"/>
<feBlend mode="normal" in2="shape" result="effect1_innerShadow_711_4436"/>
</filter>
<radialGradient id="paint0_radial_711_4436" cx="0" cy="0" r="1" gradientUnits="userSpaceOnUse" gradientTransform="translate(24.913 14.1415) rotate(100.07) scale(23.0107 24.1011)">
<stop stop-color="#F6C93B"/>
<stop offset="1" stop-color="#E88340"/>
</radialGradient>
<radialGradient id="paint1_radial_711_4436" cx="0" cy="0" r="1" gradientUnits="userSpaceOnUse" gradientTransform="translate(30.6958 17.7336) rotate(133.199) scale(8.78794 14.7232)">
<stop stop-color="#FFE065"/>
<stop offset="1" stop-color="#FFE065" stop-opacity="0"/>
</radialGradient>
<radialGradient id="paint2_radial_711_4436" cx="0" cy="0" r="1" gradientUnits="userSpaceOnUse" gradientTransform="translate(8.19531 17.735) rotate(31.6513) scale(6.69965 16.6041)">
<stop offset="0.187" stop-color="#FFA45D"/>
<stop offset="1" stop-color="#FFA45D" stop-opacity="0"/>
</radialGradient>
<radialGradient id="paint3_radial_711_4436" cx="0" cy="0" r="1" gradientUnits="userSpaceOnUse" gradientTransform="translate(20.8903 31.5625) rotate(-90) scale(20.3906 30.7215)">
<stop offset="0.928" stop-color="#F3BD46" stop-opacity="0"/>
<stop offset="0.98" stop-color="#917011"/>
</radialGradient>
<linearGradient id="paint4_linear_711_4436" x1="22.4579" y1="4.86373" x2="20.8904" y2="9.20873" gradientUnits="userSpaceOnUse">
<stop stop-color="#F3C048"/>
<stop offset="1" stop-color="#E67A41"/>
</linearGradient>
<linearGradient id="paint5_linear_711_4436" x1="20.6115" y1="17.2363" x2="20.6115" y2="33.2525" gradientUnits="userSpaceOnUse">
<stop stop-color="#A6782C"/>
<stop offset="1" stop-color="#B95940"/>
</linearGradient>
<linearGradient id="paint6_linear_711_4436" x1="25.1877" y1="27.3438" x2="16.9689" y2="27.3438" gradientUnits="userSpaceOnUse">
<stop stop-color="#9D6360"/>
<stop offset="1" stop-color="#724A4D"/>
</linearGradient>
<linearGradient id="paint7_linear_711_4436" x1="18.2741" y1="10.5275" x2="24.4453" y2="10.5275" gradientUnits="userSpaceOnUse">
<stop stop-color="#834B41"/>
<stop offset="1" stop-color="#735854"/>
</linearGradient>
<radialGradient id="paint8_radial_711_4436" cx="0" cy="0" r="1" gradientUnits="userSpaceOnUse" gradientTransform="translate(23.1953 10.1175) rotate(180) scale(2.33399 1.75781)">
<stop stop-color="#7D5A54"/>
<stop offset="1" stop-color="#7D5A54" stop-opacity="0"/>
</radialGradient>
<radialGradient id="paint9_radial_711_4436" cx="0" cy="0" r="1" gradientUnits="userSpaceOnUse" gradientTransform="translate(23.5078 10.5275) rotate(180) scale(6.91406 5.53879)">
<stop offset="0.695" stop-color="#B3624D" stop-opacity="0"/>
<stop offset="0.96" stop-color="#B3624D"/>
</radialGradient>
</defs>
</svg>
