<svg width="24" height="24" viewBox="0 0 24 24" fill="none" xmlns="http://www.w3.org/2000/svg">
<g id="fluent-emoji-flat:calendar">
<g id="Group">
<path id="Vector" d="M1.5 6.74997L11.4503 4.61772C11.8126 4.54011 12.1874 4.54011 12.5497 4.61772L22.5 6.74997V18.6C22.5 19.6343 22.0891 20.6263 21.3577 21.3577C20.6263 22.0891 19.6343 22.5 18.6 22.5H5.4C4.36566 22.5 3.37368 22.0891 2.64228 21.3577C1.91089 20.6263 1.5 19.6343 1.5 18.6V6.74997Z" fill="#B4ACBC"/>
<path id="Vector_2" d="M2.25 6L11.4097 3.8865C11.7981 3.79687 12.2019 3.79687 12.5903 3.8865L21.75 6V18.375C21.75 19.2701 21.3944 20.1285 20.7615 20.7615C20.1285 21.3944 19.2701 21.75 18.375 21.75H5.625C4.72989 21.75 3.87145 21.3944 3.23851 20.7615C2.60558 20.1285 2.25 19.2701 2.25 18.375V6Z" fill="#F3EEF8"/>
<path id="Vector_3" d="M6.0001 9C5.96032 9 5.92216 9.0158 5.89403 9.04393C5.8659 9.07206 5.8501 9.11022 5.8501 9.15V11.1C5.8501 11.1825 5.9176 11.25 6.0001 11.25H8.1001C8.13988 11.25 8.17803 11.2342 8.20616 11.2061C8.23429 11.1779 8.2501 11.1398 8.2501 11.1V9.15C8.2501 9.11022 8.23429 9.07206 8.20616 9.04393C8.17803 9.0158 8.13988 9 8.1001 9H6.0001ZM6.0001 13.125C5.96032 13.125 5.92216 13.1408 5.89403 13.1689C5.8659 13.1971 5.8501 13.2352 5.8501 13.275V15.225C5.8501 15.3075 5.9176 15.375 6.0001 15.375H8.1001C8.13988 15.375 8.17803 15.3592 8.20616 15.3311C8.23429 15.3029 8.2501 15.2648 8.2501 15.225V13.275C8.2501 13.2352 8.23429 13.1971 8.20616 13.1689C8.17803 13.1408 8.13988 13.125 8.1001 13.125H6.0001ZM5.8501 17.325C5.8501 17.2425 5.9176 17.175 6.0001 17.175H8.1001C8.1826 17.175 8.2501 17.2425 8.2501 17.325V19.275C8.2501 19.3148 8.23429 19.3529 8.20616 19.3811C8.17803 19.4092 8.13988 19.425 8.1001 19.425H6.0001C5.96032 19.425 5.92216 19.4092 5.89403 19.3811C5.8659 19.3529 5.8501 19.3148 5.8501 19.275V17.325ZM10.9501 9C10.9103 9 10.8722 9.0158 10.844 9.04393C10.8159 9.07206 10.8001 9.11022 10.8001 9.15V11.1C10.8001 11.1825 10.8676 11.25 10.9501 11.25H13.0501C13.0899 11.25 13.128 11.2342 13.1562 11.2061C13.1843 11.1779 13.2001 11.1398 13.2001 11.1V9.15C13.2001 9.11022 13.1843 9.07206 13.1562 9.04393C13.128 9.0158 13.0899 9 13.0501 9H10.9501ZM10.8001 13.275C10.8001 13.1925 10.8676 13.125 10.9501 13.125H13.0501C13.1326 13.125 13.2001 13.1925 13.2001 13.275V15.225C13.2001 15.2648 13.1843 15.3029 13.1562 15.3311C13.128 15.3592 13.0899 15.375 13.0501 15.375H10.9501C10.9103 15.375 10.8722 15.3592 10.844 15.3311C10.8159 15.3029 10.8001 15.2648 10.8001 15.225V13.275ZM10.9501 17.175C10.9103 17.175 10.8722 17.1908 10.844 17.2189C10.8159 17.2471 10.8001 17.2852 10.8001 17.325V19.275C10.8001 19.3575 10.8676 19.425 10.9501 19.425H13.0501C13.0899 19.425 13.128 19.4092 13.1562 19.3811C13.1843 19.3529 13.2001 19.3148 13.2001 19.275V17.325C13.2001 17.2852 13.1843 17.2471 13.1562 17.2189C13.128 17.1908 13.0899 17.175 13.0501 17.175H10.9501ZM15.7501 9.15C15.7501 9.0675 15.8176 9 15.9001 9H18.0001C18.0826 9 18.1501 9.0675 18.1501 9.15V11.1C18.1501 11.1398 18.1343 11.1779 18.1062 11.2061C18.078 11.2342 18.0399 11.25 18.0001 11.25H15.9001C15.8603 11.25 15.8222 11.2342 15.794 11.2061C15.7659 11.1779 15.7501 11.1398 15.7501 11.1V9.15ZM15.9001 17.175C15.8603 17.175 15.8222 17.1908 15.794 17.2189C15.7659 17.2471 15.7501 17.2852 15.7501 17.325V19.275C15.7501 19.3575 15.8176 19.425 15.9001 19.425H18.0001C18.0399 19.425 18.078 19.4092 18.1062 19.3811C18.1343 19.3529 18.1501 19.3148 18.1501 19.275V17.325C18.1501 17.2852 18.1343 17.2471 18.1062 17.2189C18.078 17.1908 18.0399 17.175 18.0001 17.175H15.9001Z" fill="#998EA4"/>
<path id="Vector_4" d="M5.4 1.5C4.36566 1.5 3.37368 1.91089 2.64228 2.64228C1.91089 3.37368 1.5 4.36566 1.5 5.4V6.75H22.5V5.4C22.5 4.36566 22.0891 3.37368 21.3577 2.64228C20.6263 1.91089 19.6343 1.5 18.6 1.5H5.4ZM15.9 13.125C15.8602 13.125 15.8221 13.1408 15.7939 13.1689C15.7658 13.1971 15.75 13.2352 15.75 13.275V15.225C15.75 15.3075 15.8175 15.375 15.9 15.375H18C18.0398 15.375 18.0779 15.3592 18.1061 15.3311C18.1342 15.3029 18.15 15.2648 18.15 15.225V13.275C18.15 13.2352 18.1342 13.1971 18.1061 13.1689C18.0779 13.1408 18.0398 13.125 18 13.125H15.9Z" fill="#0084CE"/>
</g>
</g>
</svg>
