<svg width="40" height="40" viewBox="0 0 40 40" fill="none" xmlns="http://www.w3.org/2000/svg">
<g id="noto:fire">
<path id="Vector" d="M11.1125 12.7282C10.9344 14.6282 10.8094 17.9907 11.9312 19.4219C11.9312 19.4219 11.4031 15.7282 16.1375 11.0938C18.0437 9.22815 18.4844 6.69065 17.8187 4.78753C17.4406 3.7094 16.75 2.81878 16.15 2.1969C15.8 1.83128 16.0687 1.22815 16.5781 1.25003C19.6594 1.38753 24.6531 2.24378 26.775 7.56878C27.7062 9.90628 27.775 12.3219 27.3312 14.7782C27.05 16.3469 26.05 19.8344 28.3312 20.2625C29.9594 20.5688 30.7469 19.275 31.1 18.3438C31.2469 17.9563 31.7562 17.8594 32.0312 18.1688C34.7812 21.2969 35.0156 24.9813 34.4469 28.1532C33.3469 34.2844 27.1375 38.7469 20.9687 38.7469C13.2625 38.7469 7.12812 34.3375 5.53749 26.3563C4.89687 23.1344 5.22187 16.7594 10.1906 12.2594C10.5594 11.9219 11.1625 12.2219 11.1125 12.7282Z" fill="url(#paint0_radial_711_4432)"/>
<path id="Vector_2" d="M23.7846 24.1937C20.944 20.5375 22.2158 16.3656 22.9127 14.7031C23.0065 14.4843 22.7565 14.2781 22.5596 14.4125C21.3377 15.2437 18.8346 17.2 17.669 19.9531C16.0908 23.675 16.2033 25.4968 17.1377 27.7218C17.7002 29.0625 17.0471 29.3468 16.719 29.3968C16.4002 29.4468 16.1065 29.2343 15.8721 29.0125C15.1978 28.3652 14.7174 27.5427 14.4846 26.6375C14.4346 26.4437 14.1815 26.3906 14.0658 26.55C13.1908 27.7593 12.7377 29.7 12.7158 31.0718C12.6471 35.3125 16.1502 38.75 20.3877 38.75C25.7283 38.75 29.619 32.8437 26.5502 27.9062C25.6596 26.4687 24.8221 25.5281 23.7846 24.1937Z" fill="url(#paint1_radial_711_4432)"/>
</g>
<defs>
<radialGradient id="paint0_radial_711_4432" cx="0" cy="0" r="1" gradientUnits="userSpaceOnUse" gradientTransform="translate(19.4424 38.8441) rotate(-179.751) scale(22.0586 36.1938)">
<stop offset="0.314" stop-color="#FF9800"/>
<stop offset="0.662" stop-color="#FF6D00"/>
<stop offset="0.972" stop-color="#F44336"/>
</radialGradient>
<radialGradient id="paint1_radial_711_4432" cx="0" cy="0" r="1" gradientUnits="userSpaceOnUse" gradientTransform="translate(20.6814 16.8932) rotate(90.5787) scale(23.0801 17.3695)">
<stop offset="0.214" stop-color="#FFF176"/>
<stop offset="0.328" stop-color="#FFF27D"/>
<stop offset="0.487" stop-color="#FFF48F"/>
<stop offset="0.672" stop-color="#FFF7AD"/>
<stop offset="0.793" stop-color="#FFF9C4"/>
<stop offset="0.822" stop-color="#FFF8BD" stop-opacity="0.804"/>
<stop offset="0.863" stop-color="#FFF6AB" stop-opacity="0.529"/>
<stop offset="0.91" stop-color="#FFF38D" stop-opacity="0.209"/>
<stop offset="0.941" stop-color="#FFF176" stop-opacity="0"/>
</radialGradient>
</defs>
</svg>
