<svg aria-hidden="true" style="position: absolute; width: 0; height: 0; overflow: hidden;" version="1.1" xmlns="http://www.w3.org/2000/svg" xmlns:xlink="http://www.w3.org/1999/xlink">
<defs>
<symbol id="icon-blog" viewBox="0 0 32 32">
<path d="M12.622 9.057c0.916-1.932 2.564-3.422 4.581-4.142s4.238-0.611 6.174 0.303c1.936 0.914 3.429 2.558 4.151 4.571s0.612 4.229-0.304 6.161c-0.123 0.266-0.146 0.517-0.091 0.719l0.141 0.529c0.454 1.694-1.098 3.243-2.796 2.79l-0.53-0.141c-0.172-0.041-0.351-0.035-0.52 0.017-0.183 1.535-0.729 3.005-1.595 4.288s-2.025 2.341-3.382 3.087c-1.357 0.746-2.873 1.158-4.422 1.203s-3.086-0.28-4.484-0.947c-0.217-0.113-0.467-0.145-0.705-0.090l-1.366 0.365c-1.698 0.453-3.25-1.096-2.796-2.79l0.365-1.363c0.055-0.238 0.023-0.487-0.090-0.703-0.669-1.397-0.994-2.933-0.949-4.48s0.461-3.061 1.211-4.417c0.75-1.355 1.813-2.512 3.102-3.374s2.764-1.406 4.305-1.584zM14.567 9.026c2.339 0.197 4.529 1.23 6.166 2.909s2.612 3.891 2.746 6.23c0.302-0.030 0.607-0.005 0.9 0.072l0.53 0.141c0.104 0.028 0.213 0.028 0.317 0s0.199-0.082 0.275-0.158c0.076-0.076 0.131-0.171 0.159-0.274s0.028-0.213-0-0.317l-0.141-0.529c-0.175-0.652-0.061-1.304 0.185-1.843 0.671-1.459 0.767-3.117 0.269-4.644s-1.554-2.81-2.958-3.596c-1.404-0.785-3.052-1.015-4.617-0.642s-2.933 1.319-3.831 2.651zM13.748 10.66c-1.364-0-2.707 0.344-3.902 1.002s-2.203 1.606-2.931 2.758c-0.728 1.152-1.151 2.469-1.231 3.828s0.187 2.716 0.775 3.945c0.285 0.575 0.355 1.232 0.197 1.854l-0.365 1.363c-0.028 0.104-0.028 0.213-0 0.316s0.082 0.198 0.158 0.274c0.076 0.076 0.171 0.131 0.274 0.158s0.213 0.028 0.317 0l1.367-0.365c0.623-0.158 1.282-0.088 1.858 0.197 1.094 0.521 2.291 0.789 3.503 0.786s2.407-0.279 3.498-0.807c1.091-0.527 2.048-1.293 2.802-2.24s1.284-2.051 1.552-3.23 0.266-2.404-0.005-3.582c-0.271-1.179-0.804-2.281-1.56-3.226s-1.716-1.708-2.808-2.233-2.288-0.797-3.5-0.798z"></path>
<path d="M10.963 18.717c0 0.295-0.117 0.577-0.326 0.786s-0.492 0.325-0.788 0.325-0.579-0.117-0.788-0.325c-0.209-0.209-0.326-0.491-0.326-0.786s0.117-0.577 0.326-0.786c0.209-0.208 0.492-0.326 0.788-0.326s0.579 0.117 0.788 0.326c0.209 0.208 0.326 0.491 0.326 0.786zM14.862 18.717c0 0.295-0.117 0.577-0.326 0.786s-0.492 0.325-0.788 0.325c-0.295 0-0.579-0.117-0.788-0.325s-0.326-0.491-0.326-0.786 0.117-0.577 0.326-0.786c0.209-0.208 0.492-0.326 0.788-0.326s0.579 0.117 0.788 0.326 0.326 0.491 0.326 0.786zM18.761 18.717c0 0.295-0.117 0.577-0.326 0.786s-0.492 0.325-0.788 0.325c-0.295 0-0.579-0.117-0.788-0.325s-0.326-0.491-0.326-0.786 0.117-0.577 0.326-0.786c0.209-0.208 0.492-0.326 0.788-0.326s0.579 0.117 0.788 0.326 0.326 0.491 0.326 0.786z"></path>
</symbol>
<symbol id="icon-location" viewBox="0 0 32 32">
<path d="M8.458 7.459c2-1.93 4.713-3.014 7.542-3.014s5.542 1.084 7.543 3.014c2 1.93 3.124 4.548 3.124 7.277 0 1.179-0.13 2.198-0.458 3.153-0.329 0.959-0.845 1.815-1.568 2.685-0.007 0.008-0.013 0.016-0.020 0.023l-8 8.906c-0.156 0.173-0.382 0.273-0.62 0.273s-0.464-0.1-0.62-0.273l-8-8.906c-0.007-0.008-0.014-0.015-0.020-0.023-0.723-0.87-1.239-1.726-1.568-2.685-0.328-0.955-0.458-1.974-0.458-3.153 0-2.73 1.124-5.347 3.124-7.277zM16 6.028c-2.394 0-4.689 0.917-6.382 2.551s-2.644 3.848-2.644 6.158c0 1.067 0.118 1.907 0.375 2.655 0.254 0.741 0.659 1.43 1.282 2.182l7.369 8.204 7.369-8.204c0.623-0.752 1.027-1.441 1.282-2.182 0.257-0.748 0.375-1.588 0.375-2.655 0-2.31-0.951-4.525-2.643-6.158s-3.988-2.551-6.382-2.551zM16 11.965c-1.586 0-2.872 1.241-2.872 2.771s1.286 2.771 2.872 2.771c1.586 0 2.872-1.241 2.872-2.771s-1.286-2.771-2.872-2.771zM11.487 14.736c0-2.405 2.020-4.354 4.513-4.354s4.513 1.949 4.513 4.354c0 2.405-2.020 4.354-4.513 4.354s-4.513-1.949-4.513-4.354z"></path>
</symbol>
<symbol id="icon-comments" viewBox="0 0 32 32">
<path d="M7.9 22.948c-1.034 0-2.026-0.433-2.758-1.203s-1.142-1.814-1.142-2.903v-10.737c0-1.089 0.411-2.133 1.142-2.903s1.723-1.202 2.758-1.202h16.2c0.512 0 1.019 0.106 1.492 0.313s0.903 0.509 1.265 0.89 0.649 0.834 0.845 1.332c0.196 0.498 0.297 1.032 0.297 1.571v10.737c0 0.539-0.101 1.073-0.297 1.571s-0.483 0.951-0.845 1.332c-0.362 0.381-0.792 0.684-1.265 0.89s-0.98 0.313-1.492 0.313h-6.886l-6.014 4.737c-0.223 0.175-0.488 0.282-0.765 0.309s-0.556-0.029-0.805-0.161c-0.249-0.131-0.458-0.333-0.605-0.582s-0.224-0.536-0.224-0.829v-3.474h-0.901zM16.617 21.053h7.483c0.557 0 1.091-0.233 1.485-0.647s0.615-0.977 0.615-1.563v-10.737c0-0.586-0.221-1.149-0.615-1.563s-0.928-0.647-1.485-0.647h-16.2c-0.557 0-1.091 0.233-1.485 0.647s-0.615 0.977-0.615 1.563v10.737c0 1.22 0.941 2.211 2.1 2.211h2.699v4.737l6.018-4.737z"></path>
</symbol>
<symbol id="icon-views" viewBox="0 0 32 32">
<path d="M29.28 15.711c-1.045-2.581-2.861-4.814-5.221-6.421s-5.162-2.52-8.060-2.624c-2.897 0.104-5.699 1.016-8.060 2.624s-4.175 3.84-5.221 6.421c-0.071 0.186-0.071 0.391 0 0.577 1.046 2.581 2.861 4.814 5.221 6.421s5.162 2.52 8.060 2.624c2.897-0.104 5.699-1.016 8.060-2.624s4.175-3.84 5.221-6.421c0.071-0.187 0.071-0.391 0-0.577zM16 23.636c-4.711 0-9.689-3.335-11.494-7.636 1.804-4.302 6.782-7.636 11.494-7.636s9.689 3.335 11.494 7.636c-1.804 4.302-6.782 7.636-11.494 7.636z"></path>
<path d="M16 10.667c-1.055 0-2.086 0.313-2.963 0.899s-1.561 1.419-1.964 2.394c-0.404 0.975-0.509 2.047-0.303 3.081s0.714 1.985 1.46 2.731 1.696 1.254 2.731 1.46c1.035 0.206 2.107 0.1 3.081-0.303s1.808-1.087 2.394-1.964 0.899-1.908 0.899-2.963c0-1.415-0.562-2.771-1.562-3.771s-2.357-1.562-3.771-1.562zM16 19.556c-0.703 0-1.391-0.209-1.975-0.599s-1.040-0.946-1.31-1.596-0.34-1.365-0.202-2.054c0.137-0.69 0.476-1.323 0.973-1.821s1.131-0.836 1.821-0.973c0.69-0.137 1.405-0.067 2.054 0.202s1.205 0.725 1.596 1.31c0.391 0.585 0.599 1.272 0.599 1.975 0 0.943-0.375 1.847-1.041 2.514s-1.571 1.041-2.514 1.041z"></path>
</symbol>
<symbol id="icon-history" viewBox="0 0 32 32">
<path d="M17.66 5.337c-6.019-0.166-10.951 4.681-10.951 10.665h-2.117c-0.532 0-0.792 0.64-0.414 1.007l3.299 3.318c0.237 0.237 0.603 0.237 0.84 0l3.299-3.318c0.082-0.083 0.137-0.189 0.159-0.304s0.009-0.234-0.036-0.341c-0.046-0.108-0.122-0.199-0.219-0.264s-0.212-0.098-0.329-0.098h-2.117c0-4.621 3.761-8.354 8.396-8.295 4.399 0.059 8.101 3.768 8.16 8.176 0.059 4.633-3.666 8.413-8.278 8.413-1.904 0-3.666-0.652-5.061-1.754-0.226-0.179-0.511-0.268-0.799-0.25s-0.559 0.14-0.762 0.345c-0.497 0.498-0.461 1.339 0.095 1.766 1.858 1.472 4.159 2.27 6.528 2.263 5.972 0 10.809-4.941 10.643-10.973-0.154-5.557-4.789-10.203-10.335-10.357zM17.057 11.262c-0.485 0-0.887 0.403-0.887 0.889v4.361c0 0.415 0.225 0.806 0.579 1.019l3.69 2.192c0.426 0.249 0.97 0.107 1.218-0.308 0.248-0.427 0.107-0.972-0.307-1.22l-3.406-2.026v-4.029c0-0.474-0.402-0.877-0.887-0.877z"></path>
</symbol>
<symbol id="icon-logout" viewBox="0 0 32 32">
<path d="M28 16l-4.8-4.8v3.6h-8.4c-0.663 0-1.2 0.537-1.2 1.2s0.537 1.2 1.2 1.2h8.4v3.6zM22.845 23.2c1.135 0 1.735 1.267 0.865 1.996-1.208 1.012-2.61 1.783-4.131 2.258-2.404 0.751-4.983 0.727-7.373-0.070s-4.468-2.324-5.94-4.368-2.265-4.498-2.265-7.017c0-2.519 0.792-4.973 2.265-7.017s3.551-3.571 5.94-4.368c2.389-0.796 4.969-0.821 7.373-0.070 1.521 0.475 2.924 1.246 4.131 2.258 0.87 0.729 0.271 1.996-0.865 1.996-0.335 0-0.657-0.126-0.92-0.334-1.309-1.034-2.867-1.71-4.522-1.959-1.827-0.275-3.694-0.017-5.378 0.743s-3.113 1.99-4.115 3.542c-1.002 1.552-1.535 3.36-1.535 5.208s0.533 3.656 1.535 5.208c1.002 1.552 2.431 2.782 4.115 3.542s3.551 1.018 5.378 0.743c1.655-0.249 3.213-0.926 4.522-1.959 0.263-0.208 0.585-0.334 0.92-0.334z"></path>
</symbol>
<symbol id="icon-price" viewBox="0 0 32 32">
<path d="M15.013 5.29c1.293-0.391 3.040-0.623 4.94-0.623s3.647 0.232 4.94 0.623c0.642 0.194 1.211 0.439 1.634 0.742 0.406 0.291 0.806 0.732 0.806 1.333v10.159c0 0.601-0.436 1.031-0.828 1.301-0.424 0.292-0.996 0.538-1.646 0.738-1.155 0.355-2.664 0.597-4.314 0.649v4.359c0 0.604-0.395 1.053-0.807 1.354-0.427 0.311-1.001 0.564-1.651 0.765-1.308 0.404-3.074 0.644-4.996 0.644s-3.688-0.239-4.996-0.643c-0.65-0.201-1.224-0.453-1.651-0.765-0.412-0.301-0.807-0.751-0.807-1.354v-5.015c0-0.605 0.406-1.046 0.815-1.335 0.337-0.239 0.767-0.442 1.253-0.612-0.093-0.023-0.184-0.047-0.273-0.071-0.731-0.198-1.367-0.439-1.835-0.724-0.416-0.253-0.93-0.681-0.93-1.321v-5.079c0-0.647 0.489-1.087 0.925-1.358 0.473-0.293 1.113-0.532 1.845-0.724 1.356-0.355 3.157-0.579 5.137-0.612v-0.354c0-0.601 0.4-1.042 0.806-1.333 0.423-0.302 0.991-0.547 1.633-0.742zM13.909 7.365c0.011-0.027 0.057-0.113 0.246-0.249 0.257-0.184 0.671-0.377 1.244-0.55 1.136-0.344 2.747-0.566 4.554-0.566s3.417 0.222 4.554 0.566c0.572 0.173 0.987 0.366 1.244 0.55 0.189 0.136 0.236 0.222 0.247 0.249-0.011 0.027-0.057 0.113-0.247 0.249-0.257 0.184-0.671 0.377-1.244 0.55-1.137 0.344-2.747 0.566-4.554 0.566s-3.417-0.222-4.554-0.566c-0.572-0.173-0.987-0.366-1.244-0.55-0.189-0.136-0.236-0.222-0.247-0.249zM26 9.011c-0.328 0.164-0.703 0.306-1.107 0.429-1.293 0.391-3.040 0.623-4.94 0.623s-3.647-0.232-4.94-0.623c-0.404-0.122-0.779-0.265-1.107-0.429v3.553c0.030 0.024 0.065 0.050 0.108 0.079 0.277 0.187 0.717 0.385 1.31 0.565 1.179 0.357 2.828 0.601 4.629 0.601s3.41-0.244 4.548-0.6c0.573-0.179 0.993-0.376 1.254-0.559 0.185-0.13 0.234-0.211 0.244-0.231v-3.408zM26 14.049c-0.325 0.163-0.698 0.307-1.101 0.433-1.292 0.403-3.039 0.66-4.945 0.66s-3.689-0.257-5.015-0.659c-0.373-0.113-0.721-0.241-1.031-0.383v2.77c1.601 0.056 3.056 0.274 4.175 0.609 0.649 0.194 1.222 0.439 1.649 0.74 0.238 0.169 0.475 0.389 0.632 0.663 1.608-0.039 3.051-0.271 4.105-0.595 0.583-0.179 1.013-0.377 1.282-0.562 0.187-0.129 0.239-0.209 0.251-0.231v-3.446zM19.209 19.556c-0.012-0.028-0.061-0.114-0.249-0.247-0.261-0.184-0.681-0.378-1.261-0.551-1.151-0.344-2.78-0.567-4.609-0.567s-3.458 0.223-4.609 0.567c-0.58 0.173-1 0.367-1.261 0.551-0.188 0.133-0.237 0.219-0.249 0.247 0.012 0.028 0.061 0.114 0.249 0.247 0.261 0.185 0.681 0.378 1.261 0.551 1.151 0.344 2.78 0.567 4.609 0.567s3.458-0.223 4.609-0.567c0.58-0.173 1-0.367 1.261-0.551 0.188-0.133 0.237-0.219 0.249-0.247zM6.97 21.197v3.371c0.002 0.010 0.025 0.109 0.26 0.281 0.26 0.19 0.68 0.389 1.258 0.568 1.149 0.355 2.776 0.584 4.603 0.584s3.454-0.23 4.603-0.584c0.578-0.179 0.998-0.378 1.258-0.568 0.235-0.171 0.258-0.27 0.26-0.28v-3.371c-0.334 0.166-0.717 0.311-1.13 0.434-1.306 0.391-3.071 0.623-4.991 0.623s-3.685-0.232-4.991-0.623c-0.414-0.124-0.797-0.268-1.13-0.434zM12.574 16.852v-3.745c-1.98-0.033-3.781-0.257-5.137-0.612-0.539-0.141-1.028-0.308-1.437-0.503v3.452c0.020 0.027 0.087 0.108 0.289 0.23 0.317 0.193 0.817 0.395 1.49 0.576 1.225 0.331 2.907 0.565 4.794 0.602zM6.017 10.413c0.030 0.040 0.104 0.117 0.277 0.224 0.312 0.193 0.808 0.392 1.48 0.568 1.224 0.32 2.907 0.535 4.799 0.569v-2.721c-1.892 0.033-3.575 0.248-4.799 0.569-0.672 0.176-1.168 0.374-1.48 0.568-0.173 0.107-0.247 0.184-0.277 0.224z"></path>
</symbol>
<symbol id="icon-calendar" viewBox="0 0 32 32">
<path d="M26 6.251h-3.25v-1.5c0-0.199-0.079-0.39-0.219-0.53s-0.331-0.22-0.53-0.22c-0.199-0-0.39 0.079-0.531 0.219s-0.22 0.331-0.22 0.53v1.501h-4.5v-1.5c0-0.098-0.019-0.196-0.057-0.287s-0.093-0.174-0.162-0.243c-0.070-0.070-0.152-0.125-0.243-0.163s-0.189-0.057-0.287-0.057c-0.199-0-0.39 0.079-0.531 0.219s-0.22 0.331-0.22 0.53v1.501h-4.5v-1.5c0-0.098-0.019-0.196-0.057-0.287s-0.093-0.174-0.162-0.243c-0.070-0.070-0.152-0.125-0.243-0.163s-0.188-0.057-0.287-0.057c-0.199-0-0.39 0.079-0.53 0.219s-0.22 0.331-0.22 0.53v1.501h-3.25c-0.53 0-1.039 0.211-1.414 0.585s-0.586 0.883-0.586 1.414v17.75c0 0.53 0.211 1.039 0.586 1.414s0.884 0.586 1.414 0.586h20c0.53 0 1.039-0.211 1.414-0.586s0.586-0.884 0.586-1.414v-17.75c-0-0.53-0.211-1.039-0.586-1.414s-0.884-0.585-1.414-0.585zM26.5 26.001c0 0.132-0.053 0.259-0.146 0.353s-0.22 0.147-0.353 0.147h-20.001c-0.133 0-0.26-0.053-0.354-0.146s-0.146-0.221-0.146-0.354v-17.75c0-0.132 0.053-0.259 0.147-0.353s0.221-0.146 0.353-0.146h3.25v1.5c-0 0.199 0.079 0.39 0.219 0.53s0.331 0.22 0.53 0.22c0.199 0 0.39-0.079 0.53-0.219s0.22-0.331 0.22-0.53v-1.501h4.5v1.5c-0 0.199 0.079 0.39 0.219 0.53s0.331 0.22 0.53 0.22c0.199 0 0.39-0.079 0.531-0.219s0.22-0.331 0.22-0.53v-1.501h4.5v1.5c-0 0.199 0.079 0.39 0.219 0.53s0.331 0.22 0.53 0.22c0.199 0 0.39-0.079 0.531-0.219s0.22-0.331 0.22-0.53v-1.501h3.25c0.132 0 0.259 0.053 0.353 0.146s0.146 0.22 0.147 0.353l0.001 17.75z"></path>
<path d="M9.333 13.333h2.963v2.154h-2.963v-2.154zM9.333 16.923h2.963v2.154h-2.963v-2.154zM9.333 20.513h2.963v2.154h-2.963v-2.154zM14.519 20.513h2.963v2.154h-2.963v-2.154zM14.519 16.923h2.963v2.154h-2.963v-2.154zM14.519 13.333h2.963v2.154h-2.963v-2.154zM19.704 20.513h2.963v2.154h-2.963v-2.154zM19.704 16.923h2.963v2.154h-2.963v-2.154zM19.704 13.333h2.963v2.154h-2.963v-2.154z"></path>
</symbol>
<symbol id="icon-list-orders" viewBox="0 0 32 32">
<path d="M24.727 6.4c0.289 0 0.567 0.126 0.771 0.351s0.319 0.53 0.319 0.849v16.8c0 0.318-0.115 0.623-0.319 0.849s-0.482 0.351-0.771 0.351h-17.455c-0.289 0-0.567-0.126-0.771-0.351s-0.32-0.53-0.32-0.849v-16.8c0-0.318 0.115-0.623 0.32-0.849s0.482-0.351 0.771-0.351h17.455zM7.273 4c-0.868 0-1.7 0.379-2.314 1.054s-0.959 1.591-0.959 2.546v16.8c0 0.955 0.345 1.87 0.959 2.546s1.446 1.054 2.314 1.054h17.455c0.868 0 1.7-0.379 2.314-1.054s0.959-1.591 0.959-2.546v-16.8c0-0.955-0.345-1.87-0.959-2.546s-1.446-1.054-2.314-1.054h-17.455zM9.455 10h2.182v2.4h-2.182v-2.4zM14.909 10c-0.289 0-0.567 0.126-0.771 0.351s-0.32 0.53-0.32 0.849 0.115 0.623 0.32 0.849c0.205 0.225 0.482 0.351 0.771 0.351h6.545c0.289 0 0.567-0.126 0.771-0.351s0.319-0.53 0.319-0.849-0.115-0.623-0.319-0.849c-0.205-0.225-0.482-0.351-0.771-0.351h-6.545zM11.636 14.8h-2.182v2.4h2.182v-2.4zM13.818 16c0-0.318 0.115-0.623 0.32-0.849s0.482-0.351 0.771-0.351h6.545c0.289 0 0.567 0.126 0.771 0.351s0.319 0.53 0.319 0.849-0.115 0.623-0.319 0.849c-0.205 0.225-0.482 0.351-0.771 0.351h-6.545c-0.289 0-0.567-0.126-0.771-0.351s-0.32-0.53-0.32-0.849zM11.636 19.6h-2.182v2.4h2.182v-2.4zM13.818 20.8c0-0.318 0.115-0.623 0.32-0.849s0.482-0.351 0.771-0.351h6.545c0.289 0 0.567 0.126 0.771 0.351s0.319 0.53 0.319 0.849-0.115 0.623-0.319 0.849c-0.205 0.225-0.482 0.351-0.771 0.351h-6.545c-0.289 0-0.567-0.126-0.771-0.351s-0.32-0.53-0.32-0.849z"></path>
</symbol>
<symbol id="icon-copy" viewBox="0 0 32 32">
<path d="M24.296 4.444c0.629 0 1.232 0.267 1.676 0.742s0.694 1.119 0.694 1.791v15.2c0 0.672-0.25 1.316-0.694 1.791s-1.047 0.742-1.676 0.742h-2.37v2.533c0 0.672-0.25 1.316-0.694 1.791s-1.047 0.742-1.676 0.742h-11.852c-0.629 0-1.232-0.267-1.676-0.742s-0.694-1.119-0.694-1.791v-15.2c0-0.672 0.25-1.316 0.694-1.791s1.047-0.742 1.676-0.742h2.37v-2.533c0-0.672 0.25-1.316 0.694-1.791s1.047-0.742 1.676-0.742h11.852zM19.556 12.044h-11.852v15.2h11.852v-15.2zM13.63 20.911c0.314 0 0.616 0.133 0.838 0.371s0.347 0.56 0.347 0.896c0 0.336-0.125 0.658-0.347 0.896s-0.524 0.371-0.838 0.371h-2.37c-0.314 0-0.616-0.133-0.838-0.371s-0.347-0.56-0.347-0.896c0-0.336 0.125-0.658 0.347-0.896s0.524-0.371 0.838-0.371h2.37zM24.296 6.978h-11.852v2.533h7.111c0.629 0 1.231 0.267 1.676 0.742s0.694 1.119 0.694 1.791v10.133h2.37v-15.2zM16 15.844c0.302 0 0.593 0.124 0.812 0.346s0.352 0.525 0.37 0.847-0.080 0.64-0.274 0.887c-0.194 0.248-0.469 0.407-0.769 0.445l-0.139 0.009h-4.741c-0.302-0-0.593-0.124-0.812-0.346s-0.352-0.525-0.37-0.847 0.080-0.64 0.274-0.887c0.194-0.248 0.469-0.407 0.769-0.445l0.139-0.009h4.741z"></path>
</symbol>
<symbol id="icon-info" viewBox="0 0 32 32">
<path d="M15.689 22.889h2.4v-7.2h-2.4v7.2zM16.889 13.289c0.34 0 0.625-0.115 0.856-0.346s0.345-0.515 0.344-0.854c0-0.34-0.115-0.625-0.346-0.854s-0.515-0.345-0.854-0.346c-0.34 0-0.625 0.115-0.854 0.346s-0.345 0.515-0.346 0.854c0 0.34 0.115 0.625 0.346 0.856s0.515 0.345 0.854 0.344zM16.889 28.889c-1.66 0-3.22-0.315-4.68-0.946s-2.73-1.485-3.81-2.564c-1.080-1.080-1.935-2.35-2.564-3.81s-0.945-3.020-0.946-4.68c0-1.66 0.315-3.22 0.946-4.68s1.485-2.73 2.564-3.81c1.080-1.080 2.35-1.935 3.81-2.564s3.020-0.945 4.68-0.946c1.66 0 3.22 0.315 4.68 0.946s2.73 1.485 3.81 2.564c1.080 1.080 1.935 2.35 2.566 3.81s0.945 3.020 0.944 4.68c0 1.66-0.315 3.22-0.946 4.68s-1.485 2.73-2.564 3.81c-1.080 1.080-2.35 1.935-3.81 2.566s-3.020 0.945-4.68 0.944zM16.889 26.489c2.68 0 4.95-0.93 6.81-2.79s2.79-4.13 2.79-6.81c0-2.68-0.93-4.95-2.79-6.81s-4.13-2.79-6.81-2.79c-2.68 0-4.95 0.93-6.81 2.79s-2.79 4.13-2.79 6.81c0 2.68 0.93 4.95 2.79 6.81s4.13 2.79 6.81 2.79z"></path>
</symbol>
<symbol id="icon-search" viewBox="0 0 32 32">
<path d="M19.429 2.667c-2.627 0-5.146 1.044-7.004 2.901s-2.901 4.377-2.901 7.004c0 2.453 0.899 4.709 2.377 6.446l-0.411 0.411h-1.204l-6.476 6.476c-0.631 0.631-0.631 1.655 0 2.286s1.655 0.631 2.286 0l6.476-6.476v-1.204l0.411-0.411c1.797 1.534 4.083 2.377 6.446 2.377 2.627 0 5.146-1.043 7.004-2.901s2.901-4.377 2.901-7.004c0-2.627-1.044-5.146-2.901-7.004s-4.377-2.901-7.004-2.901zM19.429 5.714c3.81 0 6.857 3.048 6.857 6.857s-3.048 6.857-6.857 6.857c-3.809 0-6.857-3.048-6.857-6.857s3.048-6.857 6.857-6.857z"></path>
</symbol>
<symbol id="icon-support" viewBox="0 0 32 32">
<path d="M16 2.667c-7.352 0-13.333 5.981-13.333 13.333v5.524c0 1.365 1.196 2.476 2.667 2.476h1.333c0.354 0 0.693-0.141 0.943-0.391s0.391-0.589 0.391-0.943v-6.857c0-0.354-0.14-0.693-0.391-0.943s-0.589-0.391-0.943-0.391h-1.211c0.741-5.16 5.181-9.143 10.544-9.143s9.803 3.983 10.544 9.143h-1.211c-0.354 0-0.693 0.141-0.943 0.391s-0.391 0.589-0.391 0.943v8.191c0 1.471-1.196 2.667-2.667 2.667h-2.667c0-0.736-0.597-1.333-1.333-1.333h-2c-1.105 0-2 0.895-2 2s0.895 2 2 2h6c2.941 0 5.333-2.392 5.333-5.333 1.471 0 2.667-1.111 2.667-2.476v-5.524c0-7.352-5.981-13.333-13.333-13.333z"></path>
</symbol>
<symbol id="icon-edit" viewBox="0 0 32 32">
<path d="M18.747 12.027l1.227 1.227-12.080 12.080h-1.227v-1.227l12.080-12.080zM23.547 4c-0.333 0-0.68 0.133-0.933 0.387l-2.44 2.44 5 5 2.44-2.44c0.124-0.123 0.222-0.27 0.289-0.431s0.101-0.334 0.101-0.509c0-0.175-0.034-0.348-0.101-0.509s-0.165-0.308-0.289-0.431l-3.12-3.12c-0.267-0.267-0.6-0.387-0.947-0.387zM18.747 8.253l-14.747 14.747v5h5l14.747-14.747-5-5z"></path>
</symbol>
<symbol id="icon-login" viewBox="0 0 32 32">
<path d="M16 2.667c-3.676 0-6.667 2.991-6.667 6.667v2.667h-1.333c-1.471 0-2.667 1.196-2.667 2.667v12c0 1.471 1.196 2.667 2.667 2.667h16c1.471 0 2.667-1.196 2.667-2.667v-12c0-1.471-1.196-2.667-2.667-2.667h-1.333v-2.667c0-3.676-2.991-6.667-6.667-6.667zM12 9.333c0-2.205 1.795-4 4-4s4 1.795 4 4v2.667h-8v-2.667zM24.003 26.667h-6.669v-3.037c0.793-0.463 1.333-1.313 1.333-2.296 0-1.471-1.196-2.667-2.667-2.667s-2.667 1.196-2.667 2.667c0 0.981 0.54 1.833 1.333 2.296v3.037h-6.667v-12h16l0.003 12z"></path>
</symbol>
<symbol id="icon-check" viewBox="0 0 32 32">
<path d="M28.943 7.057c0.521 0.521 0.521 1.365 0 1.886l-16 16c-0.521 0.521-1.365 0.521-1.886 0l-8-8c-0.521-0.521-0.521-1.365 0-1.886s1.365-0.521 1.886 0l7.057 7.057 15.057-15.057c0.521-0.521 1.365-0.521 1.886 0z"></path>
</symbol>
<symbol id="icon-close" viewBox="0 0 32 32">
<path d="M26.2 8.090c0.631-0.631 0.631-1.653 0-2.284s-1.652-0.63-2.283 0l-7.914 7.909-7.914-7.909c-0.63-0.63-1.652-0.63-2.283 0s-0.631 1.654 0 2.284l7.913 7.907-7.913 7.907c-0.631 0.631-0.631 1.653 0 2.284s1.652 0.63 2.283 0l7.914-7.909 7.914 7.909c0.63 0.63 1.652 0.63 2.283 0s0.631-1.653 0-2.284l-7.913-7.907 7.913-7.907z"></path>
</symbol>
<symbol id="icon-arrow-right" viewBox="0 0 32 32">
<path d="M20.793 14.604c0.346 0.367 0.541 0.865 0.541 1.384s-0.194 1.017-0.541 1.384l-6.97 7.388c-0.347 0.367-0.817 0.573-1.307 0.573s-0.96-0.207-1.307-0.574c-0.347-0.367-0.541-0.866-0.541-1.385s0.195-1.018 0.542-1.385l5.664-6.001-5.664-6.001c-0.337-0.369-0.523-0.864-0.519-1.377s0.198-1.005 0.541-1.368c0.343-0.363 0.806-0.57 1.291-0.574s0.952 0.192 1.3 0.549l6.972 7.388z"></path>
</symbol>
<symbol id="icon-arrow-up" viewBox="0 0 32 32">
<path d="M14.604 11.207c0.367-0.346 0.865-0.541 1.384-0.541s1.017 0.194 1.384 0.541l7.388 6.97c0.367 0.347 0.573 0.817 0.573 1.307s-0.207 0.961-0.574 1.307c-0.367 0.347-0.866 0.541-1.385 0.541s-1.018-0.195-1.385-0.542l-6.001-5.664-6.001 5.664c-0.369 0.337-0.864 0.523-1.377 0.519s-1.005-0.198-1.368-0.541-0.57-0.806-0.574-1.291c-0.005-0.485 0.192-0.952 0.549-1.301l7.388-6.972z"></path>
</symbol>
<symbol id="icon-arrow-left" viewBox="0 0 32 32">
<path d="M11.207 17.396c-0.346-0.367-0.541-0.865-0.541-1.384s0.194-1.017 0.541-1.384l6.97-7.388c0.347-0.367 0.817-0.574 1.307-0.573s0.961 0.207 1.307 0.574c0.347 0.367 0.541 0.866 0.541 1.385s-0.195 1.018-0.542 1.385l-5.664 6.001 5.664 6.001c0.337 0.369 0.523 0.864 0.519 1.377s-0.198 1.005-0.541 1.368c-0.343 0.363-0.806 0.569-1.291 0.574s-0.952-0.192-1.301-0.549l-6.972-7.388z"></path>
</symbol>
<symbol id="icon-arrow-down" viewBox="0 0 32 32">
<path d="M17.396 20.793c-0.367 0.346-0.865 0.541-1.384 0.541s-1.017-0.194-1.384-0.541l-7.388-6.97c-0.367-0.347-0.574-0.817-0.573-1.307s0.207-0.96 0.574-1.307c0.367-0.347 0.866-0.541 1.385-0.541s1.018 0.195 1.385 0.542l6.001 5.664 6.001-5.664c0.369-0.337 0.864-0.523 1.377-0.519s1.005 0.198 1.368 0.541c0.363 0.343 0.569 0.806 0.574 1.291s-0.192 0.952-0.549 1.3l-7.388 6.972z"></path>
</symbol>
<symbol id="icon-menu-burger" viewBox="0 0 32 32">
<path d="M2.667 8.364c0-0.937 0.785-1.697 1.754-1.697h23.158c0.969 0 1.754 0.76 1.754 1.697s-0.785 1.697-1.754 1.697h-23.158c-0.969 0-1.754-0.76-1.754-1.697zM2.667 16c0-0.937 0.785-1.697 1.754-1.697h23.158c0.969 0 1.754 0.76 1.754 1.697s-0.785 1.697-1.754 1.697h-23.158c-0.969 0-1.754-0.76-1.754-1.697zM2.667 23.636c0-0.937 0.785-1.697 1.754-1.697h23.158c0.969 0 1.754 0.76 1.754 1.697s-0.785 1.697-1.754 1.697h-23.158c-0.969 0-1.754-0.76-1.754-1.697z"></path>
</symbol>
<symbol id="icon-phone" viewBox="0 0 32 32">
<path d="M27.944 22.115c-0.28-0.298-1.267-1.179-3.082-2.344-1.828-1.175-3.177-1.908-3.564-2.079-0.034-0.015-0.072-0.021-0.109-0.016s-0.072 0.019-0.101 0.042c-0.623 0.486-1.672 1.378-1.728 1.427-0.363 0.311-0.363 0.311-0.661 0.214-0.523-0.171-2.147-1.034-3.563-2.453s-2.322-3.083-2.494-3.605c-0.098-0.298-0.098-0.298 0.214-0.661 0.048-0.056 0.941-1.105 1.427-1.728 0.023-0.029 0.038-0.064 0.042-0.101s-0.001-0.075-0.016-0.109c-0.171-0.387-0.904-1.735-2.079-3.564-1.167-1.814-2.046-2.802-2.344-3.082-0.027-0.026-0.061-0.044-0.098-0.052s-0.075-0.006-0.111 0.005c-1.041 0.358-2.046 0.814-3 1.363-0.921 0.536-1.793 1.151-2.606 1.84-0.028 0.024-0.050 0.056-0.062 0.091s-0.014 0.073-0.006 0.11c0.112 0.522 0.647 2.7 2.308 5.717 1.695 3.079 2.869 4.657 5.357 7.137s4.116 3.725 7.199 5.419c3.017 1.661 5.197 2.197 5.717 2.307 0.036 0.008 0.074 0.006 0.11-0.006s0.067-0.033 0.091-0.061c0.689-0.813 1.304-1.685 1.84-2.606 0.549-0.954 1.006-1.959 1.363-3 0.011-0.035 0.013-0.073 0.005-0.11s-0.026-0.070-0.051-0.097z"></path>
</symbol>
<symbol id="icon-prder-list" viewBox="0 0 32 32">
<path d="M21.13 24.7l4.17-4.14-1.26-1.26-2.91 2.85-1.17-1.17-1.26 1.29 2.43 2.43zM7.6 11.2h14.4v-2.4h-14.4v2.4zM22 28c-1.66 0-3.075-0.585-4.244-1.756s-1.755-2.585-1.756-4.244c0-1.66 0.585-3.075 1.756-4.244s2.585-1.755 4.244-1.756c1.66 0 3.075 0.585 4.246 1.756s1.755 2.585 1.754 4.244c0 1.66-0.585 3.075-1.756 4.246s-2.585 1.755-4.244 1.754zM4 26.8v-22.8h21.6v10.41c-0.56-0.28-1.145-0.485-1.756-0.616s-1.225-0.195-1.844-0.194h-14.4v2.4h8.52c-0.34 0.34-0.655 0.71-0.944 1.11s-0.545 0.83-0.766 1.29h-6.81v2.4h6.090c-0.040 0.2-0.065 0.395-0.074 0.586s-0.015 0.395-0.016 0.614c0 0.84 0.115 1.645 0.346 2.416s0.575 1.505 1.034 2.204l-0.18 0.18-1.8-1.8-1.8 1.8-1.8-1.8-1.8 1.8-1.8-1.8-1.8 1.8z"></path>
</symbol>
<symbol id="icon-profile" viewBox="0 0 32 32">
<path d="M15.333 6c1.415 0 2.771 0.562 3.771 1.562s1.562 2.357 1.562 3.771-0.562 2.771-1.562 3.771c-1 1-2.357 1.562-3.771 1.562s-2.771-0.562-3.771-1.562c-1-1-1.562-2.357-1.562-3.771s0.562-2.771 1.562-3.771c1-1 2.357-1.562 3.771-1.562zM15.333 19.333c5.893 0 10.667 2.387 10.667 5.333v2.667h-21.333v-2.667c0-2.947 4.773-5.333 10.667-5.333z"></path>
</symbol>
<symbol id="icon-add-1" viewBox="0 0 32 32">
<path d="M9.208 4.376c-1.22 0.135-2.358 0.677-3.231 1.539s-1.428 1.992-1.576 3.208c-0.535 4.569-0.535 9.185 0 13.754 0.293 2.503 2.309 4.468 4.808 4.747 4.513 0.5 9.068 0.5 13.581 0 2.499-0.28 4.515-2.244 4.808-4.747 0.535-4.57 0.535-9.186 0-13.756-0.293-2.503-2.309-4.468-4.808-4.747-4.513-0.499-9.068-0.499-13.581 0zM16 8.729c0.29 0 0.568 0.115 0.774 0.32s0.32 0.483 0.32 0.772v5.087h5.095c0.29 0 0.568 0.115 0.774 0.32s0.32 0.483 0.32 0.772c0 0.29-0.115 0.567-0.32 0.772s-0.483 0.32-0.774 0.32h-5.095v5.087c0 0.29-0.115 0.567-0.32 0.772s-0.483 0.32-0.774 0.32c-0.29 0-0.568-0.115-0.774-0.32s-0.32-0.483-0.32-0.772v-5.087h-5.095c-0.29 0-0.568-0.115-0.774-0.32s-0.32-0.483-0.32-0.772c0-0.29 0.115-0.567 0.32-0.772s0.483-0.32 0.774-0.32h5.095v-5.087c0-0.29 0.115-0.567 0.32-0.772s0.483-0.32 0.774-0.32z"></path>
</symbol>
<symbol id="icon-trash" viewBox="0 0 32 32">
<path d="M16 4c6.636 0 12 5.364 12 12s-5.364 12-12 12c-6.636 0-12-5.364-12-12s5.364-12 12-12zM22 10h-3l-1.2-1.2h-3.6l-1.2 1.2h-3v2.4h12v-2.4zM12.4 23.2h7.2c0.318 0 0.623-0.126 0.849-0.351s0.351-0.53 0.351-0.849v-8.4h-9.6v8.4c0 0.318 0.126 0.623 0.351 0.849s0.53 0.351 0.849 0.351z"></path>
</symbol>
<symbol id="icon-question" viewBox="0 0 32 32">
<path d="M16 28c-6.628 0-12-5.372-12-12s5.372-12 12-12c6.628 0 12 5.372 12 12s-5.372 12-12 12zM14.8 19.6v2.4h2.4v-2.4h-2.4zM17.2 17.626c0.964-0.291 1.792-0.918 2.333-1.768s0.758-1.866 0.613-2.862c-0.145-0.997-0.644-1.908-1.405-2.568s-1.734-1.025-2.741-1.028c-0.971-0-1.912 0.336-2.663 0.952s-1.266 1.472-1.457 2.424l2.354 0.472c0.067-0.334 0.227-0.643 0.462-0.889s0.536-0.422 0.867-0.504c0.331-0.083 0.678-0.070 1.002 0.038s0.61 0.304 0.826 0.568c0.216 0.264 0.353 0.583 0.395 0.922s-0.014 0.681-0.159 0.99c-0.146 0.308-0.376 0.569-0.664 0.751s-0.622 0.279-0.963 0.279c-0.318 0-0.623 0.126-0.849 0.351s-0.351 0.53-0.351 0.849v1.8h2.4v-0.774z"></path>
</symbol>
<symbol id="icon-add" viewBox="0 0 32 32">
<path d="M16 4c-6.628 0-12 5.372-12 12s5.372 12 12 12c6.628 0 12-5.372 12-12s-5.372-12-12-12zM22 16c0 0.663-0.537 1.2-1.2 1.2h-3.6v3.6c0 0.663-0.537 1.2-1.2 1.2s-1.2-0.537-1.2-1.2v-3.6h-3.6c-0.663 0-1.2-0.537-1.2-1.2s0.537-1.2 1.2-1.2h3.6v-3.6c0-0.663 0.537-1.2 1.2-1.2s1.2 0.537 1.2 1.2v3.6h3.6c0.663 0 1.2 0.537 1.2 1.2z"></path>
</symbol>
<symbol id="icon-telegram" viewBox="0 0 32 32">
<path d="M27.169 5.591l-23.625 9.248c-0.951 0.431-1.272 1.293-0.23 1.761l6.061 1.955 14.655-9.193c0.8-0.577 1.619-0.423 0.914 0.212l-12.586 11.568-0.395 4.895c0.366 0.756 1.037 0.759 1.464 0.384l3.482-3.345 5.964 4.533c1.385 0.832 2.139 0.295 2.437-1.23l3.912-18.802c0.406-1.878-0.286-2.705-2.052-1.986z"></path>
</symbol>
<symbol id="icon-home" viewBox="0 0 32 32">
<path d="M15.328 6.103c0.178-0.172 0.42-0.268 0.672-0.268s0.494 0.096 0.672 0.268l11.025 10.625c0.088 0.087 0.193 0.157 0.309 0.205s0.241 0.073 0.367 0.074c0.126 0.001 0.252-0.022 0.369-0.068s0.223-0.114 0.312-0.201c0.089-0.086 0.16-0.189 0.208-0.301s0.072-0.233 0.071-0.355c-0.001-0.122-0.027-0.242-0.077-0.354s-0.122-0.213-0.213-0.298l-11.024-10.625c-0.265-0.255-0.58-0.458-0.926-0.596s-0.717-0.209-1.092-0.209c-0.375 0-0.746 0.071-1.092 0.209s-0.661 0.341-0.926 0.596l-11.025 10.625c-0.091 0.085-0.163 0.186-0.213 0.298s-0.076 0.232-0.077 0.354c-0.001 0.122 0.023 0.242 0.071 0.355s0.119 0.215 0.208 0.301c0.089 0.086 0.196 0.154 0.313 0.2s0.242 0.069 0.369 0.068c0.126-0.001 0.251-0.026 0.367-0.075s0.221-0.118 0.309-0.206l11.025-10.624z"></path>
<path d="M16 8.049l10.351 9.976c0.038 0.037 0.076 0.071 0.115 0.105v7.578c0 1.266-1.066 2.293-2.379 2.293h-4.282c-0.252 0-0.494-0.097-0.673-0.269s-0.279-0.405-0.279-0.648v-5.502c0-0.243-0.1-0.476-0.279-0.648s-0.42-0.269-0.673-0.269h-3.806c-0.252 0-0.494 0.097-0.673 0.269s-0.279 0.405-0.279 0.648v5.502c0 0.243-0.1 0.476-0.279 0.648s-0.42 0.269-0.673 0.269h-4.282c-0.631 0-1.236-0.241-1.682-0.671s-0.697-1.013-0.697-1.621v-7.578c0.039-0.034 0.078-0.069 0.115-0.105l10.351-9.976z"></path>
</symbol>
<symbol id="icon-arrow-link" viewBox="0 0 32 32">
<path d="M5.482 6.364c0-1.306 1.058-2.364 2.364-2.364h17.79c1.305 0 2.364 1.058 2.364 2.364v17.79c0 1.306-1.058 2.364-2.364 2.364s-2.364-1.058-2.364-2.364v-12.083l-15.237 15.237c-0.923 0.923-2.42 0.923-3.343 0s-0.923-2.42 0-3.343l15.237-15.237h-12.083c-1.306 0-2.364-1.058-2.364-2.364z"></path>
</symbol>
</defs>
</svg>
