<svg width="391" height="42" viewBox="0 0 391 42" fill="none" xmlns="http://www.w3.org/2000/svg">
<g clip-path="url(#clip0_2774_2061)">
<path d="M4.4 35.8L10.8667 5.33333H54.7333L57.5333 8.9L52.5667 32.2333L48.2667 35.8H4.4ZM26.6667 11.8667L22.9667 29.2667H36L39.7 11.8667H26.6667ZM7.86667 3.43333L8.5 0.5H62.7333L62.1 3.43333H7.86667ZM0 40.6333L0.6 37.7H54.8L54.2 40.6333H0Z" fill="#062847"/>
<path d="M105.968 17.3333L100.768 22.5333L102.068 35.8H84.8677L83.9677 23.8667H74.3677L71.8344 35.8H54.6344L61.101 5.33333H108.534L105.968 17.3333ZM50.2344 40.6333L50.8344 37.7H105.034L104.434 40.6333H50.2344ZM58.101 3.43333L58.7344 0.5H112.968L112.334 3.43333H58.101ZM87.5677 17.3333L89.0344 16.0667L89.9344 11.8667H76.901L75.7344 17.3333H87.5677Z" fill="#062847"/>
<path d="M104.869 35.8L111.335 5.33333H128.535L122.069 35.8H104.869ZM108.335 3.43333L108.969 0.5H132.969L132.335 3.43333H108.335ZM100.469 40.6333L101.069 37.7H125.035L124.435 40.6333H100.469Z" fill="#062847"/>
<path d="M139.735 35.8L127.769 22.1333L131.335 5.33333H148.535L145.669 18.7333L150.835 25.1333L158.702 18.7333L161.569 5.33333H178.769L175.202 22.1333L157.435 35.8H139.735ZM128.335 3.43333L128.969 0.5H183.202L182.569 3.43333H128.335ZM120.469 40.6333L121.069 37.7H175.269L174.669 40.6333H120.469Z" fill="#062847"/>
<path d="M175.103 35.8L181.57 5.33333H225.97L224.47 12.3H197.27L196.27 17.0333H222.57L221.103 24H194.803L193.77 28.8333H220.97L219.503 35.8H175.103ZM170.703 40.6333L171.303 37.7H222.47L221.87 40.6333H170.703ZM178.57 3.43333L179.203 0.5H230.403L229.77 3.43333H178.57Z" fill="#062847"/>
<path d="M259.757 23.8667L258.591 29.2667H245.557L246.191 26.3333H228.991L226.991 35.8H274.424L280.891 5.33333H233.457L229.524 23.8667H259.757ZM261.124 17.3333H248.091L249.257 11.8667H262.291L261.124 17.3333ZM221.524 40.6333L230.057 0.5H286.357L277.824 40.6333H221.524Z" fill="#007AEA"/>
<path d="M333.272 17.3333L328.072 22.5333L329.372 35.8H312.172L311.272 23.8667H301.672L299.139 35.8H281.939L288.406 5.33333H335.839L333.272 17.3333ZM277.539 40.6333L278.139 37.7H332.339L331.739 40.6333H277.539ZM285.406 3.43333L286.039 0.5H340.272L339.639 3.43333H285.406ZM314.872 17.3333L316.339 16.0667L317.239 11.8667H304.206L303.039 17.3333H314.872Z" fill="#007AEA"/>
<path d="M332.173 35.8L338.64 5.33333H355.84L350.74 29.2667H363.773L368.873 5.33333H386.073L379.607 35.8H332.173ZM335.64 3.43333L336.273 0.5H390.507L389.873 3.43333H335.64ZM327.773 40.6333L328.373 37.7H382.573L381.973 40.6333H327.773Z" fill="#007AEA"/>
</g>
<defs>
<clipPath id="clip0_2774_2061">
<rect width="391" height="41" fill="white" transform="translate(0 0.5)"/>
</clipPath>
</defs>
</svg>
