<svg width="523" height="57" viewBox="0 0 523 57" fill="none" xmlns="http://www.w3.org/2000/svg">
<g clip-path="url(#clip0_1500_11219)">
<path d="M0 28.5C0 13.036 12.536 0.5 28 0.5L495 0.5C510.464 0.5 523 13.036 523 28.5C523 43.964 510.464 56.5 495 56.5L28 56.5C12.536 56.5 0 43.964 0 28.5Z" fill="#062847"/>
<path d="M-8.41089 184.182L-55.2793 171.624L14.6887 -89.5L61.5571 -76.9417L-8.41089 184.182Z" fill="#007AEA"/>
<path d="M21.4573 194.947L1.37081 189.565L71.3388 -71.5594L91.4252 -66.1772L21.4573 194.947Z" fill="#007AEA"/>
<path d="M36.054 202.123L29.3585 200.329L99.3264 -60.795L106.022 -59.001L36.054 202.123Z" fill="#007AEA"/>
<path d="M45.0325 201.001L42.5242 200.329L112.492 -60.7951L115 -60.123L45.0325 201.001Z" fill="#007AEA"/>
<path d="M474.907 40.9022V38.9725C472.605 38.9725 470.596 38.5437 468.881 37.686C467.166 36.8284 465.834 35.6096 464.886 34.0297C463.961 32.4273 463.498 30.5427 463.498 28.376V27.6989C463.498 25.6677 463.961 23.8847 464.886 22.3499C465.834 20.7926 467.166 19.5851 468.881 18.7275C470.596 17.8698 472.605 17.441 474.907 17.441V15.5113H482.355V17.441C484.657 17.441 486.666 17.8698 488.381 18.7275C490.096 19.5851 491.428 20.7926 492.376 22.3499C493.324 23.8847 493.798 25.6677 493.798 27.6989V28.376C493.798 30.5427 493.324 32.4273 492.376 34.0297C491.428 35.6096 490.096 36.8284 488.381 37.686C486.666 38.5437 484.657 38.9725 482.355 38.9725V40.9022H474.907ZM486.045 28.376V27.6989C486.045 26.593 485.887 25.7354 485.571 25.126C485.255 24.494 484.804 24.0539 484.217 23.8057C483.63 23.5348 482.953 23.3994 482.186 23.3994V33.0141C483.043 33.0141 483.754 32.8787 484.319 32.6079C484.883 32.3144 485.312 31.8405 485.605 31.186C485.898 30.5089 486.045 29.5722 486.045 28.376ZM471.183 27.6989V28.376C471.183 29.5722 471.33 30.5089 471.623 31.186C471.917 31.8631 472.345 32.337 472.91 32.6079C473.496 32.8787 474.219 33.0141 475.076 33.0141V23.3994C474.286 23.3994 473.587 23.5348 472.977 23.8057C472.391 24.0539 471.939 24.494 471.623 25.126C471.33 25.7354 471.183 26.593 471.183 27.6989Z" fill="white"/>
<path d="M441.402 40.0559V16.3577H451.727C454.052 16.3577 455.948 16.6849 457.415 17.3394C458.882 17.994 459.965 18.9419 460.665 20.1832C461.365 21.402 461.714 22.9029 461.714 24.6859C461.714 26.3786 461.365 27.8344 460.665 29.0531C459.965 30.2719 458.882 31.2085 457.415 31.8631C455.948 32.5176 454.052 32.8448 451.727 32.8448H448.917V40.0559H441.402ZM448.917 27.2588H450.881C452.1 27.2588 452.957 27.0331 453.454 26.5817C453.95 26.1078 454.199 25.4758 454.199 24.6859C454.199 23.8959 453.95 23.2753 453.454 22.8239C452.957 22.3499 452.1 22.1129 450.881 22.1129H448.917V27.2588Z" fill="white"/>
<path d="M432.088 40.6878C431.215 40.6878 430.403 40.4772 429.651 40.0559C428.898 39.6045 428.311 39.0177 427.89 38.2954C427.469 37.5431 427.258 36.7155 427.258 35.8128C427.258 34.4586 427.725 33.315 428.658 32.3822C429.59 31.4493 430.734 30.9828 432.088 30.9828C433.442 30.9828 434.586 31.4493 435.519 32.3822C436.482 33.315 436.963 34.4586 436.963 35.8128C436.963 36.7155 436.737 37.5431 436.286 38.2954C435.865 39.0177 435.293 39.6045 434.571 40.0559C433.849 40.4772 433.021 40.6878 432.088 40.6878Z" fill="white"/>
<path d="M401.771 40.0559V16.132H410.212V23.6702H414.049C417.208 23.6702 419.631 24.3172 421.316 25.6112C423.031 26.8751 423.889 28.9215 423.889 31.7502C423.889 33.315 423.573 34.7294 422.941 35.9933C422.309 37.2572 421.271 38.2503 419.826 38.9725C418.412 39.6947 416.486 40.0559 414.049 40.0559H401.771ZM410.212 33.9169H412.83C413.733 33.9169 414.395 33.7363 414.816 33.3752C415.237 33.0141 415.448 32.4724 415.448 31.7502C415.448 30.9678 415.237 30.4111 414.816 30.08C414.395 29.749 413.717 29.5835 412.785 29.5835H410.212V33.9169Z" fill="white"/>
<path d="M391.726 45.6983V40.0559H361.031V16.132H369.517V33.2398H374.302V16.132H382.562V33.2398H387.347V16.132H395.788V33.2398H398.767V45.6983H391.726Z" fill="white"/>
<path d="M345.482 40.6878C343.134 40.6878 340.998 40.2515 339.072 39.3788C337.146 38.476 335.626 37.1067 334.513 35.2711C333.399 33.4354 332.843 31.1182 332.843 28.3196V27.4168C332.843 24.7987 333.399 22.617 334.513 20.8716C335.626 19.0961 337.146 17.757 339.072 16.8542C340.998 15.9514 343.134 15.5 345.482 15.5C347.829 15.5 349.951 15.9514 351.846 16.8542C353.772 17.757 355.292 19.0961 356.405 20.8716C357.519 22.617 358.076 24.7987 358.076 27.4168V28.3196C358.076 31.028 357.519 33.315 356.405 35.1808C355.292 37.0165 353.772 38.4007 351.846 39.3336C349.951 40.2364 347.829 40.6878 345.482 40.6878ZM345.482 33.7815C346.294 33.7815 347.001 33.5859 347.603 33.1947C348.205 32.7734 348.656 32.1565 348.957 31.3439C349.288 30.5314 349.454 29.5233 349.454 28.3196V27.4168C349.454 26.3636 349.288 25.4608 348.957 24.7084C348.656 23.9561 348.205 23.3844 347.603 22.9931C347.001 22.6019 346.294 22.4063 345.482 22.4063C344.609 22.4063 343.872 22.6019 343.27 22.9931C342.698 23.3844 342.247 23.9561 341.916 24.7084C341.615 25.4608 341.464 26.3636 341.464 27.4168V28.3196C341.464 29.5233 341.615 30.5314 341.916 31.3439C342.247 32.1565 342.698 32.7734 343.27 33.1947C343.872 33.5859 344.609 33.7815 345.482 33.7815Z" fill="white"/>
<path d="M300.066 40.0559V16.132H310.674L315.143 26.5592L319.566 16.132H329.903V40.0559H322.049V26.2883L317.67 35.7676H312.299L307.92 26.2883V40.0559H300.066Z" fill="white"/>
<path d="M284.517 40.6878C282.17 40.6878 280.033 40.2515 278.107 39.3788C276.181 38.476 274.662 37.1067 273.548 35.2711C272.435 33.4354 271.878 31.1182 271.878 28.3196V27.4168C271.878 24.7987 272.435 22.617 273.548 20.8716C274.662 19.0961 276.181 17.757 278.107 16.8542C280.033 15.9514 282.17 15.5 284.517 15.5C286.864 15.5 288.986 15.9514 290.882 16.8542C292.808 17.757 294.327 19.0961 295.441 20.8716C296.554 22.617 297.111 24.7987 297.111 27.4168V28.3196C297.111 31.028 296.554 33.315 295.441 35.1808C294.327 37.0165 292.808 38.4007 290.882 39.3336C288.986 40.2364 286.864 40.6878 284.517 40.6878ZM284.517 33.7815C285.329 33.7815 286.037 33.5859 286.639 33.1947C287.24 32.7734 287.692 32.1565 287.993 31.3439C288.324 30.5314 288.489 29.5233 288.489 28.3196V27.4168C288.489 26.3636 288.324 25.4608 287.993 24.7084C287.692 23.9561 287.24 23.3844 286.639 22.9931C286.037 22.6019 285.329 22.4063 284.517 22.4063C283.644 22.4063 282.907 22.6019 282.305 22.9931C281.733 23.3844 281.282 23.9561 280.951 24.7084C280.65 25.4608 280.5 26.3636 280.5 27.4168V28.3196C280.5 29.5233 280.65 30.5314 280.951 31.3439C281.282 32.1565 281.733 32.7734 282.305 33.1947C282.907 33.5859 283.644 33.7815 284.517 33.7815Z" fill="white"/>
<path d="M245.405 40.0559V16.132H268.923V40.0559H260.437V22.948H253.891V40.0559H245.405Z" fill="white"/>
<path d="M203.856 40.6878C201.509 40.6878 199.372 40.2515 197.446 39.3788C195.52 38.476 194 37.1067 192.887 35.2711C191.774 33.4354 191.217 31.1182 191.217 28.3196V27.4168C191.217 24.7987 191.774 22.617 192.887 20.8716C194 19.0961 195.52 17.757 197.446 16.8542C199.372 15.9514 201.509 15.5 203.856 15.5C206.203 15.5 208.325 15.9514 210.221 16.8542C212.147 17.757 213.666 19.0961 214.78 20.8716C215.893 22.617 216.45 24.7987 216.45 27.4168V28.3196C216.45 31.028 215.893 33.315 214.78 35.1808C213.666 37.0165 212.147 38.4007 210.221 39.3336C208.325 40.2364 206.203 40.6878 203.856 40.6878ZM203.856 33.7815C204.668 33.7815 205.376 33.5859 205.977 33.1947C206.579 32.7734 207.031 32.1565 207.332 31.3439C207.663 30.5314 207.828 29.5233 207.828 28.3196V27.4168C207.828 26.3636 207.663 25.4608 207.332 24.7084C207.031 23.9561 206.579 23.3844 205.977 22.9931C205.376 22.6019 204.668 22.4063 203.856 22.4063C202.983 22.4063 202.246 22.6019 201.644 22.9931C201.072 23.3844 200.621 23.9561 200.29 24.7084C199.989 25.4608 199.839 26.3636 199.839 27.4168V28.3196C199.839 29.5233 199.989 30.5314 200.29 31.3439C200.621 32.1565 201.072 32.7734 201.644 33.1947C202.246 33.5859 202.983 33.7815 203.856 33.7815Z" fill="white"/>
<path d="M174.402 40.0559V22.948H167.586V16.132H189.704V22.948H182.888V40.0559H174.402Z" fill="white"/>
<path d="M142.042 40.0559V16.132H156.351C158.548 16.132 160.293 16.4178 161.587 16.9896C162.912 17.5313 163.859 18.2686 164.431 19.2014C165.033 20.1343 165.334 21.1876 165.334 22.3612C165.334 23.5649 165.003 24.6633 164.341 25.6564C163.679 26.6194 162.701 27.2663 161.407 27.5974C162.881 27.9585 164.01 28.6506 164.792 29.6738C165.605 30.6969 166.011 31.8856 166.011 33.2398C166.011 35.3162 165.289 36.9713 163.844 38.2051C162.4 39.439 160.203 40.0559 157.254 40.0559H142.042ZM150.528 34.2329H154.726C155.629 34.2329 156.321 34.0674 156.803 33.7363C157.284 33.4053 157.525 32.9539 157.525 32.3822C157.525 31.7803 157.299 31.3289 156.848 31.028C156.426 30.6969 155.734 30.5314 154.771 30.5314H150.528V34.2329ZM150.528 25.4758H154.32C155.343 25.4758 156.02 25.3103 156.351 24.9793C156.682 24.6182 156.848 24.1969 156.848 23.7154C156.848 23.2339 156.667 22.8276 156.306 22.4966C155.975 22.1355 155.313 21.9549 154.32 21.9549H150.528V25.4758Z" fill="white"/>
<path d="M123.08 40.6878C121.365 40.6878 119.905 40.3568 118.701 39.6947C117.498 39.0327 116.58 38.1149 115.948 36.9412C115.316 35.7676 115 34.4736 115 33.0592C115 30.6819 115.722 28.8312 117.167 27.5071C118.641 26.183 120.928 25.521 124.028 25.521H129.986V24.7084C129.986 23.595 129.731 22.8276 129.219 22.4063C128.707 21.9549 128.015 21.7292 127.143 21.7292C126.3 21.7292 125.668 21.8647 125.247 22.1355C124.855 22.4063 124.63 22.8126 124.57 23.3543H116.354C116.444 21.8496 116.896 20.5105 117.708 19.3369C118.551 18.1331 119.77 17.2003 121.365 16.5382C122.99 15.8461 124.991 15.5 127.368 15.5C129.565 15.5 131.491 15.831 133.146 16.4931C134.831 17.125 136.14 18.1632 137.073 19.6077C138.006 21.0221 138.473 22.948 138.473 25.3855V33.962C138.473 35.2259 138.503 36.3394 138.563 37.3024C138.623 38.2352 138.728 39.1531 138.879 40.0559H130.799C130.709 39.6346 130.633 39.2283 130.573 38.8371C130.513 38.4459 130.483 37.9343 130.483 37.3024C129.851 38.2352 128.978 39.0327 127.865 39.6947C126.751 40.3568 125.156 40.6878 123.08 40.6878ZM126.149 34.6843C126.932 34.6843 127.609 34.5488 128.181 34.278C128.752 33.9771 129.189 33.5558 129.49 33.0141C129.821 32.4423 129.986 31.7803 129.986 31.028V30.3057H126.014C125.232 30.3057 124.63 30.5013 124.208 30.8926C123.817 31.2838 123.622 31.7803 123.622 32.3822C123.622 33.1044 123.817 33.6762 124.208 34.0975C124.63 34.4887 125.277 34.6843 126.149 34.6843Z" fill="white"/>
<path d="M221.24 30.908V24.252H241.08V30.908H221.24Z" fill="white"/>
</g>
<defs>
<clipPath id="clip0_1500_11219">
<path d="M0 28.5C0 13.036 12.536 0.5 28 0.5L495 0.5C510.464 0.5 523 13.036 523 28.5C523 43.964 510.464 56.5 495 56.5L28 56.5C12.536 56.5 0 43.964 0 28.5Z" fill="white"/>
</clipPath>
</defs>
</svg>
